<svg width="40" height="41" viewBox="0 0 40 41" fill="none" xmlns="http://www.w3.org/2000/svg">
<g id="Link &#226;&#134;&#146; SVG">
<path id="Vector" d="M20.8333 12.1636C20.8333 11.8321 20.7016 11.5141 20.4672 11.2797C20.2328 11.0453 19.9149 10.9136 19.5833 10.9136C19.2518 10.9136 18.9339 11.0453 18.6995 11.2797C18.465 11.5141 18.3333 11.8321 18.3333 12.1636V21.3302C18.3333 21.7802 18.5733 22.1936 18.9633 22.4152L24.7967 25.7486C25.0838 25.9038 25.4203 25.9405 25.7341 25.8509C26.048 25.7613 26.3144 25.5525 26.4763 25.2691C26.6382 24.9857 26.6829 24.6502 26.6008 24.3343C26.5186 24.0184 26.3162 23.7472 26.0367 23.5786L20.8333 20.6052V12.1636Z" fill="#1A202C"/>
<path id="Vector_2" d="M20 1.74658C30.125 1.74658 38.3334 9.95491 38.3334 20.0799C38.3334 30.2049 30.125 38.4132 20 38.4132C9.87502 38.4132 1.66669 30.2049 1.66669 20.0799C1.66669 9.95491 9.87502 1.74658 20 1.74658ZM4.16669 20.0799C4.16669 24.2792 5.83484 28.3064 8.80416 31.2758C11.7735 34.2451 15.8008 35.9132 20 35.9132C24.1993 35.9132 28.2265 34.2451 31.1959 31.2758C34.1652 28.3064 35.8334 24.2792 35.8334 20.0799C35.8334 15.8807 34.1652 11.8534 31.1959 8.88406C28.2265 5.91473 24.1993 4.24658 20 4.24658C15.8008 4.24658 11.7735 5.91473 8.80416 8.88406C5.83484 11.8534 4.16669 15.8807 4.16669 20.0799Z" fill="#1A202C"/>
</g>
</svg>
