<svg width="27" height="29" viewBox="0 0 27 29" fill="none" xmlns="http://www.w3.org/2000/svg">
<g id="SVG">
<path id="Vector" d="M11.0892 20.7186C13.0291 20.7182 14.9131 20.0687 16.4412 18.8735L21.2456 23.6787L22.791 22.1331L17.9866 17.3278C19.1822 15.7993 19.832 13.9145 19.8325 11.9738C19.8325 7.15214 15.91 3.229 11.0892 3.229C6.26832 3.229 2.34584 7.15214 2.34584 11.9738C2.34584 16.7955 6.26832 20.7186 11.0892 20.7186ZM11.0892 5.4152C14.7056 5.4152 17.6467 8.35674 17.6467 11.9738C17.6467 15.5909 14.7056 18.5324 11.0892 18.5324C7.47271 18.5324 4.53167 15.5909 4.53167 11.9738C4.53167 8.35674 7.47271 5.4152 11.0892 5.4152Z" fill="#555555"/>
</g>
</svg>
